<svg id="Layer_3" enable-background="new 0 0 64 64" height="512" viewBox="0 0 64 64" width="512" xmlns="http://www.w3.org/2000/svg"><path d="m2 62v-18h5.789c4.702 0 9.299-1.392 13.211-4 3.912-2.608 8.509-4 13.211-4h27.789v26z" fill="#976947"/><path d="m62 62v-22h-10.515c-3.06 0-6.049.685-8.763 1.969l-11.443 8.062c-2.715 1.284-5.704 1.969-8.764 1.969h-2.391c-5.807 0-11.342 2.465-15.227 6.781l-2.897 3.219" fill="#c18e59"/><ellipse cx="53" cy="48" fill="#78b75b" rx="5" ry="8"/><circle cx="37" cy="46" fill="#78b75b" r="7"/><path d="m15 6c-.034 0-.066.009-.1.01-.459-2.287-2.478-4.01-4.9-4.01s-4.441 1.723-4.9 4.01c-.034-.001-.066-.01-.1-.01-1.657 0-3 1.343-3 3s1.343 3 3 3c.841 0 1.598-.348 2.143-.905.811.567 1.793.905 2.857.905s2.046-.338 2.857-.905c.545.557 1.302.905 2.143.905 1.657 0 3-1.343 3-3s-1.343-3-3-3z" fill="#a1cdfb"/><path d="m59 6c-.034 0-.066.009-.1.01-.459-2.287-2.478-4.01-4.9-4.01s-4.441 1.723-4.9 4.01c-.034-.001-.066-.01-.1-.01-1.657 0-3 1.343-3 3s1.343 3 3 3c.841 0 1.598-.348 2.143-.905.811.567 1.793.905 2.857.905s2.046-.338 2.857-.905c.545.557 1.302.905 2.143.905 1.657 0 3-1.343 3-3s-1.343-3-3-3z" fill="#a1cdfb"/><path d="m43.149 42.873-.855-1.808c2.855-1.351 6.033-2.065 9.191-2.065h10.515v2h-10.515c-2.864 0-5.746.648-8.336 1.873z"/><path d="m2.743 62.669-1.486-1.338 2.897-3.219c4.068-4.52 9.888-7.112 15.97-7.112h2.391c2.865 0 5.747-.647 8.336-1.873l.855 1.808c-2.854 1.351-6.033 2.065-9.191 2.065h-2.391c-5.516 0-10.794 2.351-14.484 6.45z"/><path d="m62 63h-60c-.552 0-1-.448-1-1v-18c0-.552.448-1 1-1h5.789c4.52 0 8.896-1.325 12.656-3.832 4.09-2.727 8.85-4.168 13.766-4.168h27.789c.552 0 1 .448 1 1v26c0 .552-.448 1-1 1zm-59-2h58v-24h-26.789c-4.52 0-8.896 1.325-12.656 3.832-4.09 2.727-8.85 4.168-13.766 4.168h-4.789z"/><path d="m53 57c-3.364 0-6-3.953-6-9s2.636-9 6-9 6 3.953 6 9-2.636 9-6 9zm0-16c-2.168 0-4 3.206-4 7s1.832 7 4 7 4-3.206 4-7-1.832-7-4-7z"/><path d="m54 62h-2v-14c0-.265.105-.52.293-.707l2-2 1.414 1.414-1.707 1.707z"/><path d="m50.5 47.379h2v4.243h-2z" transform="matrix(.707 -.707 .707 .707 -19.918 50.914)"/><path d="m38 62h-2v-16c0-.265.105-.52.293-.707l2-2 1.414 1.414-1.707 1.707z"/><path d="m34.5 45.379h2v4.243h-2z" transform="matrix(.707 -.707 .707 .707 -23.19 39.015)"/><path d="m37 54c-4.411 0-8-3.589-8-8s3.589-8 8-8 8 3.589 8 8-3.589 8-8 8zm0-14c-3.309 0-6 2.691-6 6s2.691 6 6 6 6-2.691 6-6-2.691-6-6-6z"/><path d="m5 15h2v10h-2z"/><path d="m1 15h2v10h-2z"/><path d="m2 19h4v2h-4z"/><path d="m13 25h-4c-.552 0-1-.448-1-1v-8c0-.552.448-1 1-1h4c.552 0 1 .448 1 1v8c0 .552-.448 1-1 1zm-3-2h2v-6h-2z"/><path d="m48 25h-4c-.552 0-1-.448-1-1v-8c0-.552.448-1 1-1h4c.552 0 1 .448 1 1v8c0 .552-.448 1-1 1zm-3-2h2v-6h-2z"/><path d="m55 25h-4c-.552 0-1-.448-1-1v-8c0-.552.448-1 1-1h4c.552 0 1 .448 1 1v8c0 .552-.448 1-1 1zm-3-2h2v-6h-2z"/><path d="m60 25h-2c-.552 0-1-.448-1-1v-8c0-.552.448-1 1-1h2c1.654 0 3 1.346 3 3v4c0 1.654-1.346 3-3 3zm-1-2h1c.551 0 1-.449 1-1v-4c0-.551-.449-1-1-1h-1z"/><path d="m41 25h-6c-.552 0-1-.448-1-1v-9h2v8h4v-8h2v9c0 .552-.448 1-1 1z"/><path d="m28 21c-.409 0-.776-.249-.929-.628l-2-5 1.857-.743 1.072 2.679 1.071-2.679 1.857.743-2 5c-.152.379-.519.628-.928.628z"/><path d="m20 25h-4c-.552 0-1-.448-1-1v-9h2v8h3z"/><path d="m26 25h-4c-.552 0-1-.448-1-1v-9h2v8h3z"/><path d="m27 20h2v5h-2z"/><path d="m37 15h2v9h-2z"/><path d="m15 13c-.808 0-1.578-.238-2.232-.682-1.707.896-3.828.896-5.535 0-.655.444-1.425.682-2.233.682-2.206 0-4-1.794-4-4 0-1.975 1.439-3.621 3.324-3.943.819-2.391 3.093-4.057 5.676-4.057s4.857 1.666 5.676 4.057c1.885.322 3.324 1.968 3.324 3.943 0 2.206-1.794 4-4 4zm-2.144-2.905c.262 0 .521.102.715.301.382.39.889.604 1.429.604 1.103 0 2-.897 2-2 0-1.089-.875-1.977-1.958-2-.062.007-.107.011-.142.01-.474 0-.886-.334-.98-.803-.374-1.858-2.023-3.207-3.92-3.207s-3.546 1.349-3.92 3.208c-.097.482-.529.817-1.024.801-.034-.001-.113-.009-.146-.014-1.013.005-1.91.902-1.91 2.005s.897 2 2 2c.54 0 1.047-.214 1.428-.604.342-.351.886-.402 1.288-.12 1.354.947 3.213.947 4.567 0 .174-.122.374-.181.573-.181z"/><path d="m59 13c-.808 0-1.578-.238-2.232-.682-1.707.896-3.828.896-5.535 0-.655.444-1.425.682-2.233.682-2.206 0-4-1.794-4-4 0-1.975 1.439-3.621 3.324-3.943.819-2.391 3.093-4.057 5.676-4.057s4.857 1.666 5.676 4.057c1.885.322 3.324 1.968 3.324 3.943 0 2.206-1.794 4-4 4zm-2.144-2.905c.262 0 .521.102.715.301.382.39.889.604 1.429.604 1.103 0 2-.897 2-2 0-1.089-.875-1.977-1.958-2-.062.007-.107.011-.142.01-.474 0-.886-.334-.98-.803-.374-1.858-2.023-3.207-3.92-3.207s-3.546 1.349-3.92 3.208c-.097.483-.523.817-1.024.802-.034-.002-.113-.01-.146-.015-1.013.005-1.91.902-1.91 2.005s.897 2 2 2c.54 0 1.047-.214 1.428-.604.342-.351.886-.402 1.288-.12 1.354.947 3.213.947 4.567 0 .174-.122.374-.181.573-.181z"/><path d="m1 31h62v2h-62z"/><path d="m3 27h2v5h-2z"/><path d="m10 27h2v5h-2z"/><path d="m17 27h2v5h-2z"/><path d="m23 27h2v5h-2z"/><path d="m27 27h2v5h-2z"/><path d="m37 27h2v5h-2z"/><path d="m45 27h2v5h-2z"/><path d="m52 27h2v5h-2z"/><path d="m59 27h2v5h-2z"/></svg>